<svg width="25" height="25" viewBox="0 0 25 25" fill="none" xmlns="http://www.w3.org/2000/svg">
<path d="M16.375 4H9.625C6.51888 4 4 6.51888 4 9.625V16.375C4 19.4811 6.51888 22 9.625 22H16.375C19.4811 22 22 19.4811 22 16.375V9.625C22 6.51888 19.4811 4 16.375 4ZM20.3125 16.375C20.3125 18.5463 18.5463 20.3125 16.375 20.3125H9.625C7.45375 20.3125 5.6875 18.5463 5.6875 16.375V9.625C5.6875 7.45375 7.45375 5.6875 9.625 5.6875H16.375C18.5463 5.6875 20.3125 7.45375 20.3125 9.625V16.375Z" fill="#066035"/>
<path d="M13 8.5C10.5149 8.5 8.5 10.5149 8.5 13C8.5 15.4851 10.5149 17.5 13 17.5C15.4851 17.5 17.5 15.4851 17.5 13C17.5 10.5149 15.4851 8.5 13 8.5ZM13 15.8125C11.4497 15.8125 10.1875 14.5503 10.1875 13C10.1875 11.4486 11.4497 10.1875 13 10.1875C14.5503 10.1875 15.8125 11.4486 15.8125 13C15.8125 14.5503 14.5503 15.8125 13 15.8125Z" fill="#066035"/>
<path d="M17.8373 8.76212C18.1685 8.76212 18.4369 8.49365 18.4369 8.16249C18.4369 7.83133 18.1685 7.56287 17.8373 7.56287C17.5061 7.56287 17.2377 7.83133 17.2377 8.16249C17.2377 8.49365 17.5061 8.76212 17.8373 8.76212Z" fill="#066035"/>
</svg>
