<svg width="25" height="25" viewBox="0 0 25 25" fill="none" xmlns="http://www.w3.org/2000/svg">
<path d="M21.9999 7.18037C21.302 7.48654 20.5582 7.68948 19.7828 7.78802C20.5805 7.31175 21.1893 6.56333 21.4756 5.66123C20.7318 6.10465 19.9107 6.41787 19.0356 6.59265C18.3294 5.84071 17.3229 5.375 16.2249 5.375C14.0946 5.375 12.3795 7.10412 12.3795 9.22387C12.3795 9.52886 12.4053 9.82213 12.4687 10.1013C9.26971 9.94531 6.43908 8.4121 4.53752 6.0765C4.20554 6.65248 4.01081 7.31175 4.01081 8.02146C4.01081 9.35408 4.69706 10.5354 5.71998 11.2193C5.10177 11.2075 4.49529 11.0281 3.98148 10.7453C3.98148 10.7571 3.98148 10.7723 3.98148 10.7876C3.98148 12.6575 5.31527 14.2106 7.06433 14.5684C6.75112 14.654 6.40975 14.6951 6.05548 14.6951C5.80914 14.6951 5.56044 14.681 5.327 14.6294C5.82556 16.1532 7.24029 17.2735 8.92248 17.3099C7.61333 18.334 5.95108 18.951 4.15158 18.951C3.83602 18.951 3.53337 18.9369 3.23071 18.8982C4.93519 19.9974 6.95523 20.625 9.13364 20.625C16.2143 20.625 20.0855 14.7596 20.0855 9.6755C20.0855 9.5054 20.0796 9.34117 20.0714 9.17811C20.8351 8.63615 21.4768 7.95929 21.9999 7.18037Z" fill="#066035"/>
</svg>
