<svg width="22" height="13" viewBox="0 0 22 13" fill="none" xmlns="http://www.w3.org/2000/svg">
<path d="M3.50898 11.28L3.42898 12.128L4.85298 12.016L6.90098 12L8.82098 12.064L9.90898 12.128L9.87698 11.376L9.90898 10.608L8.75698 10.688C8.10098 10.736 7.49298 10.752 6.94898 10.752L6.02098 10.736V6.672L6.98098 6.656C7.66898 6.672 8.26098 6.704 8.78898 6.72L9.79698 6.8L9.74898 6.048L9.79698 5.28L8.83698 5.344C8.24498 5.392 7.63698 5.408 7.01298 5.408L6.02098 5.392V1.712L6.91698 1.728L8.90098 1.792L9.90898 1.856L9.87698 1.072L9.90898 0.335997L8.94898 0.415997C8.45298 0.447996 7.63698 0.463997 6.50098 0.463997C5.73298 0.463997 5.18898 0.447996 4.85298 0.431996L3.42898 0.335997L3.50898 1.2L3.55698 2.656V4.464L3.57298 7.536L3.55698 9.664C3.55698 10.288 3.54098 10.832 3.50898 11.28ZM12.6684 4.016L11.3884 3.968L11.4684 4.704C11.4844 5.024 11.5004 5.488 11.5164 6.08L11.5324 8.08L11.5164 9.696L11.4844 11.232L11.3884 12.048L12.6844 12L13.8524 12.048L13.7564 11.312C13.7244 10.896 13.7084 10.368 13.7084 9.744V8.336L13.7564 6.976C13.8204 5.808 14.3324 5.216 15.2604 5.2C16.1404 5.2 16.6204 5.776 16.6684 6.944L16.7004 8.384L16.6844 9.776L16.6044 11.248L16.5724 12.048L17.7564 12L19.0204 12.048L18.9244 11.344C18.8924 11.024 18.8764 10.56 18.8764 9.92V8.448L18.8924 6.704C18.8924 6.176 18.8284 5.712 18.6684 5.312C18.5564 5.024 18.3964 4.768 18.1244 4.512C17.6284 4.016 17.0044 3.776 16.2364 3.776C15.4364 3.792 14.7644 4.048 14.1884 4.56L13.6444 5.088L13.6604 4.608C13.6764 4.464 13.7084 4.256 13.7724 3.968L12.6684 4.016Z" fill="#393838"/>
</svg>
