<svg width="25" height="25" viewBox="0 0 25 25" fill="none" xmlns="http://www.w3.org/2000/svg">
<path d="M24.3179 18.4871C24.252 18.3767 23.844 17.4902 21.8809 15.6683C19.8258 13.7604 20.1019 14.0702 22.5772 10.7713C24.0848 8.76224 24.6875 7.53531 24.4989 7.01081C24.3194 6.51084 23.2106 6.64273 23.2106 6.64273L19.5237 6.6642C19.5237 6.6642 19.2507 6.62739 19.0468 6.74855C18.8489 6.86818 18.7216 7.14423 18.7216 7.14423C18.7216 7.14423 18.1373 8.69936 17.3582 10.0214C15.7157 12.8111 15.0577 12.9583 14.7893 12.785C14.1651 12.3817 14.3216 11.1624 14.3216 10.2974C14.3216 7.59359 14.7311 6.46636 13.5225 6.17497C13.1207 6.07835 12.8263 6.01393 11.8003 6.0032C10.4844 5.98939 9.36942 6.0078 8.73909 6.31606C8.31887 6.52157 7.99527 6.98013 8.19311 7.00621C8.43696 7.03841 8.98907 7.15497 9.282 7.55372C9.66081 8.06749 9.64701 9.22386 9.64701 9.22386C9.64701 9.22386 9.86479 12.4062 9.13937 12.8019C8.64093 13.0733 7.95846 12.5197 6.49382 9.98762C5.74387 8.69169 5.17641 7.25772 5.17641 7.25772C5.17641 7.25772 5.06753 6.99087 4.87275 6.84824C4.63657 6.67494 4.3053 6.61973 4.3053 6.61973L0.799375 6.6412C0.799375 6.6412 0.273332 6.65653 0.0800922 6.88505C-0.0916767 7.08902 0.0662894 7.50924 0.0662894 7.50924C0.0662894 7.50924 2.81153 13.9306 5.9187 17.1682C8.76976 20.1358 12.0058 19.941 12.0058 19.941H13.4719C13.4719 19.941 13.9152 19.8919 14.1406 19.6481C14.3492 19.4242 14.3415 19.004 14.3415 19.004C14.3415 19.004 14.3124 17.0363 15.2264 16.7464C16.1267 16.4612 17.2831 18.6482 18.5084 19.4901C19.4348 20.1266 20.1387 19.987 20.1387 19.987L23.4161 19.941C23.4161 19.941 25.1307 19.8352 24.3179 18.4871Z" fill="#066035"/>
</svg>
