<svg width="180" height="58" viewBox="0 0 180 58" fill="none" xmlns="http://www.w3.org/2000/svg">
<path d="M25.1319 35.9711C25.1319 35.9711 26.2784 33.281 26.5172 25.8956C26.5172 25.8956 26.3842 24.2568 27.455 23.1042L29.0325 22.1552L28.7986 20.416L14.323 30.1661L14.6657 32.4148C14.6657 32.4148 18.6916 29.0505 19.21 29.9518C19.21 29.9518 19.873 33.2196 18.9663 37.1384C18.9663 37.1384 17.5441 40.757 14.9423 40.6002C14.9423 40.6002 8.62435 39.4173 8.86899 32.1274C9.10975 24.8502 9.15053 17.6801 10.5504 13.4408C10.5504 13.4408 11.929 7.36393 16.9635 4.68843C16.9635 4.68843 19.5886 3.14704 20.8205 4.96222C20.8205 4.96222 23.2912 6.38862 18.8848 10.0735L19.5294 12.4246L28.6539 4.62997C28.6539 4.62997 28.7636 0.427712 18.2159 2.40753C18.2159 2.40753 6.07698 4.41856 2.20736 19.9795C2.20736 19.9795 -2.08649 38.8337 7.91665 43.7385C7.91665 43.7385 13.9511 45.5468 19.6488 41.2208C19.6488 41.2208 23.5815 38.065 25.1319 35.9711Z" fill="white"/>
<path d="M30.8728 25.8349C30.9718 25.5358 33.094 23.9817 33.094 23.9817C33.094 23.9817 33.9648 22.6966 34.2114 25.4374C34.4492 28.1674 34.192 40.101 33.2561 43.2792C33.0134 44.0811 33.5658 43.517 33.5658 43.517L38.4412 39.531C38.4412 39.531 38.2557 29.0872 41.0973 24.7125C41.0973 24.7125 42.1263 23.097 42.7632 23.0249C43.3932 22.9411 44.8319 24.197 45.6115 23.894C45.6115 23.894 47.4366 22.9411 48.3637 20.9038L49.5724 18.8441L49.1772 18.5187C49.1772 18.5187 47.6735 19.8067 45.3766 19.4842C45.3766 19.4842 43.8466 18.4212 43.2505 18.8217L39.4217 23.7937C39.4217 23.7937 39.6285 19.9197 36.8733 18.8217C36.8733 18.8217 31.6708 22.6966 29.7185 24.692C29.7185 24.692 30.7747 26.1311 30.8728 25.8349Z" fill="white"/>
<path d="M51.8981 27.852C51.9797 26.6399 52.5631 25.0605 52.5631 25.0605C53.2708 22.7679 54.8746 21.5705 54.8746 21.5705C54.8746 21.5705 56.0415 23.2307 55.4289 25.1131C54.2407 28.7279 51.87 30.4174 51.87 30.4174C51.7486 28.6012 51.8554 28.609 51.8981 27.852ZM66.8368 24.9134C67.6639 21.4263 69.3308 21.5042 69.3308 21.5042C70.254 22.8273 70.2424 25.3479 69.2522 27.0754C67.8095 29.5911 66.432 30.8158 66.432 30.8158C66.432 30.8158 66.3456 29.4898 66.3087 28.2992C66.2689 27.1115 66.6019 25.9013 66.8368 24.9134ZM49.1478 41.8247C49.1478 41.8247 49.4498 43.2181 51.4816 41.624C51.4816 41.624 57.6627 38.5549 61.4557 32.4498C61.4557 32.4498 61.5867 37.2454 64.702 41.2226C64.702 41.2226 65.3981 42.4269 66.0757 42.6919C66.7727 42.9384 68.059 42.3333 68.8745 41.6338C68.8745 41.6338 72.8198 39.1415 79.6388 27.9231C79.8086 27.6746 81.9619 23.3993 82.1512 23.1469C82.1512 23.1469 83.3229 22.309 83.1463 24.6172C82.9492 27.776 83.2783 31.8584 80.9163 41.9144C80.9163 41.9144 80.197 43.6662 81.1969 42.8215L86.0684 39.4455C86.0684 39.4455 86.3004 34.9587 86.978 32.6973C86.978 32.6973 88.7225 25.3265 91.7718 22.7523C91.7718 22.7523 92.8203 21.6328 92.6213 24.2265C92.6213 24.2265 92.729 27.2664 91.3612 35.4702C91.3612 35.4702 91.1457 37.034 91.067 39.2827C91.0097 40.562 91.9543 42.6227 92.4941 43.1391C92.83 43.4519 93.3659 43.1391 94.6668 42.4171C94.6668 42.4171 96.3288 41.4672 99.8295 36.8801C99.8295 36.8801 99.0664 35.9418 99.0276 35.9885C98.7024 36.3159 96.6695 39.4309 96.0317 38.6884C95.3987 37.9489 96.2288 33.5079 96.0647 33.7934C96.0647 33.7934 98.049 22.9316 97.187 19.9199C97.187 19.9199 96.6569 17.1548 96.0579 17.336C95.4813 17.5124 93.0232 19.1152 91.3554 21.324L87.7042 26.3252C87.7042 26.3252 88.2663 18.3357 85.1461 18.3493C85.1461 18.3493 83.7569 19.3198 83.1463 19.9199C83.1463 19.9199 81.0522 21.853 79.8698 24.0696C77.104 29.3047 75.6798 30.9221 74.0333 33.0665C74.0333 33.0665 70.987 36.9707 69.3687 36.9005C69.3687 36.9005 67.3523 36.1951 66.8659 32.367C66.8659 32.367 72.5238 28.9617 73.8606 21.8686C73.8606 21.8686 73.8606 19.2165 73.4053 18.364C72.9383 17.5036 72.7597 17.0632 71.6442 17.7511C71.6442 17.7511 64.0118 20.0037 61.576 29.2764C61.576 29.2764 57.4152 36.8089 54.0067 37.1265C53.2126 36.8089 52.3855 36.4855 52.0845 34.3965L51.935 32.367C51.935 32.367 55.959 29.4752 57.5822 26.7851C57.5822 26.7851 60.4285 22.4015 59.2073 18.6212C59.2073 18.6212 59.0054 16.6277 57.3764 17.7238C57.3764 17.7238 54.4368 19.1152 51.5894 21.8101C51.5894 21.8101 46.5005 26.5853 46.6111 32.062C46.6111 32.062 46.1976 37.5436 49.1478 41.8247Z" fill="white"/>
<path d="M111.149 2.90064C111.149 2.90064 114.313 0.0332046 115.664 5.36084C116.356 8.06652 113.251 10.1048 113.251 10.1048L113.442 10.8541L119.831 5.84214C119.831 5.84214 119.56 4.0377 118.632 2.90748C118.632 2.90748 110.975 -6.84554 105.383 9.37408C104.508 11.9171 104.358 17.0479 104.358 17.0479C104.358 17.0479 101.911 17.9637 99.3535 21.5483C99.3535 21.5483 99.3904 22.2021 100.122 22.0189C100.122 22.0189 101.514 20.1072 104.414 19.4749C104.414 19.4749 104.544 30.4682 103.322 43.0244L103.552 43.2446L108.452 40.8263C108.944 35.4792 109.511 24.8503 109.433 19.2382C109.433 19.2382 110.084 19.4009 110.874 19.3599C110.874 19.3599 111.923 19.2693 112.637 19.1232C113.338 18.9761 114.213 18.7033 116.139 16.4535C116.316 16.1271 116.438 15.6293 115.757 15.8972C112.521 17.1589 109.126 16.2168 109.126 16.2168C109.149 14.0089 108.492 6.39752 111.149 2.90064Z" fill="white"/>
<path d="M161.311 33.1517L159.281 35.7755C157.831 37.997 157.111 34.8879 157.111 34.8879C156.691 31.9143 157.094 28.66 157.094 28.66C158.622 19.022 162.313 22.3756 162.313 22.3756L161.311 33.1517ZM130.819 26.5935C131.29 24.5386 133.775 22.4672 133.775 22.4672C135.38 25.8179 130.426 30.785 130.426 30.785C130.426 30.785 130.348 28.6513 130.819 26.5935ZM171.729 32.5914C171.38 32.8019 169.759 35.9928 167.222 36.5599C167.222 36.5599 166.325 34.1162 166.77 28.4496C166.77 28.4496 169.336 2.44481 169.336 1.96933C169.336 1.96933 169.588 0.4104 168.572 0.4104L159.941 7.27648C159.941 7.27648 160.129 7.58241 160.557 8.08322C160.557 8.08322 163.895 5.89586 164.334 7.05531C164.788 8.22157 163.112 18.2932 163.112 18.2932C163.112 18.2932 155.644 18.6274 152.422 29.9325C152.422 29.9325 146.934 37.6813 147.094 34.5352C147.094 34.5352 148.061 21.9908 148.549 18.49C148.549 18.49 149.847 5.0102 149.847 4.53279C149.847 4.53279 149.665 2.45551 148.533 2.61822L140.152 9.22221C140.152 9.22221 140.251 9.24853 140.983 9.9851C140.983 9.9851 143.011 8.30634 143.828 8.6873C144.207 8.86463 144.034 11.4602 144.034 11.4602C144.034 11.4602 142.817 24.8826 141.856 26.6305C141.856 26.6305 138.663 33.859 133.087 36.5228C133.087 36.5228 130.502 35.1734 130.651 32.4706C130.651 32.4706 136.141 29.2972 137.428 23.8936C137.428 23.8936 138.206 21.3312 137.946 19.4595C137.946 19.4595 138.059 17.4241 137.087 17.58C137.087 17.58 133.292 18.34 129.188 24.5328C128.219 25.9826 126.853 28.7409 126.202 32.5184C126.202 32.5184 123.503 36.9506 121.935 36.2023C121.935 36.2023 120.499 35.1237 122.112 26.3791C122.112 26.3791 123.321 19.9671 123.321 19.4906C123.321 19.0084 124.07 17.0022 123.417 17.3228C123.417 17.3228 119.425 19.2159 114.067 22.7517L114.66 23.6218C115.264 23.6218 118.483 21.1158 118.652 21.8933C118.775 22.4019 118.306 23.7484 118.306 23.7484C117.875 25.4935 116.493 31.4466 116.631 34.5381C116.631 34.5381 116.902 42.8336 119.324 42.9972C119.324 42.9972 120.822 41.8466 122.112 40.2642L126.665 34.1231C126.665 34.1231 126.463 38.6732 129.037 41.6917L130.333 42.9651C130.333 42.9651 135.747 39.0103 141.937 30.2511C141.937 30.2511 140.971 39.7781 141.937 41.3701C141.937 41.3701 142.749 42.8004 143.392 42.8004C143.392 42.8004 149.405 36.2169 152.301 32.0848C152.301 32.0848 152.021 40.9287 156.764 42.4799C156.764 42.4799 160.343 36.7908 161.311 34.8879C161.311 34.8879 161.266 38.2961 161.371 39.3231C161.476 40.352 161.976 43.0167 164.18 42.8706C164.18 42.8706 167.853 40.4182 172.448 32.8477C172.448 32.8477 172.087 32.381 171.729 32.5914Z" fill="white"/>
<path d="M175.786 27.6669H176.117C176.5 27.6669 176.829 27.5276 176.829 27.1622C176.829 26.9069 176.639 26.6497 176.117 26.6497C175.974 26.6497 175.868 26.6624 175.786 26.6731V27.6669ZM175.786 29.2941H175.326V26.3574C175.565 26.3233 175.796 26.2882 176.143 26.2882C176.582 26.2882 176.873 26.3808 177.043 26.5084C177.222 26.637 177.309 26.8368 177.309 27.1184C177.309 27.5042 177.053 27.7371 176.742 27.8326V27.8569C176.995 27.9017 177.169 28.1365 177.229 28.5701C177.298 29.0271 177.368 29.2025 177.413 29.2941H176.932C176.863 29.2025 176.791 28.9316 176.734 28.5448C176.669 28.1706 176.478 28.0294 176.11 28.0294H175.786V29.2941ZM176.272 25.5351C175.13 25.5351 174.192 26.5309 174.192 27.7595C174.192 29.0144 175.13 29.9956 176.288 29.9956C177.438 30.0102 178.358 29.0144 178.358 27.7731C178.358 26.5309 177.438 25.5351 176.288 25.5351H176.272ZM176.288 25.1288C177.703 25.1288 178.834 26.298 178.834 27.7595C178.834 29.2473 177.703 30.4077 176.272 30.4077C174.852 30.4077 173.697 29.2473 173.697 27.7595C173.697 26.298 174.852 25.1288 176.272 25.1288H176.288Z" fill="white"/>
<path d="M0 57.8983L0.016502 57.5554L0.036885 56.8344L0.0640673 55.7704V54.2388L0.0514464 53.5567L0.036885 52.9361L0 52.5376L0.564029 52.5688L1.6523 52.599L2.61825 52.5854L3.1852 52.5376L3.1619 52.8367L3.1852 53.1524L2.64349 53.1222C2.34837 53.1066 2.02315 53.1017 1.63677 53.0959H1.2533V53.5567V54.3167V54.8877L1.59696 54.8974C1.90956 54.8974 2.26779 54.8877 2.6629 54.8565L3.09297 54.8292L3.07841 55.1273L3.09297 55.4489L2.6629 55.4187C2.26585 55.3982 1.89791 55.3807 1.58725 55.3807H1.2533V55.8191L1.26787 56.8694L1.28534 57.571L1.31446 57.8983L0.690238 57.8866L0 57.8983Z" fill="#E5CE90"/>
<path d="M5.71097 56.7231L5.71873 55.212L5.71097 53.8664C5.71097 53.465 5.71097 53.1522 5.68184 52.9028L5.65369 52.5764L6.3216 52.5998L6.97981 52.5764L6.94194 52.9028C6.93126 53.0801 6.92155 53.4085 6.92155 53.884L6.90602 55.2285V56.7563C6.9099 57.07 6.92155 57.3389 6.93126 57.5698L6.97981 57.8982L6.3216 57.8865L5.65369 57.8982L5.68184 57.5124L5.71097 56.7231Z" fill="#E5CE90"/>
<path d="M10.4821 56.4681L10.5083 55.067L10.4976 53.8326L10.4491 53.0658L10.4297 52.5767L10.8394 52.5991L11.2354 52.5767L11.6238 53.0424C11.7888 53.2451 12.0849 53.5568 12.5091 53.9933L13.4401 54.9725C13.7799 55.3262 14.0915 55.6361 14.3527 55.9079L14.774 56.2957L14.7517 55.6292L14.7478 54.7806L14.709 53.8238L14.6866 52.9752L14.675 52.5767L15.0099 52.5991L15.3623 52.5767V52.9031L15.3332 53.7127L15.3089 55.2561L15.3021 56.7059V57.5029L15.3128 57.8984L14.9585 57.8868L14.5634 57.8984L14.2401 57.5058C14.0382 57.2642 13.7887 56.9904 13.5071 56.6932C13.2363 56.3902 12.8926 56.0433 12.4664 55.6117L11.5112 54.6335L11.0918 54.1979L11.0782 54.5068L11.0665 55.3262L11.0918 56.4555C11.0918 56.9475 11.0918 57.3226 11.1073 57.5866L11.1296 57.8984L10.7937 57.8868L10.4297 57.8984L10.4491 57.5866C10.4491 57.306 10.4637 56.927 10.4821 56.4681Z" fill="#E5CE90"/>
<path d="M18.7221 56.8545L18.7288 55.8773L18.7221 54.4645V53.6373L18.7046 52.9728L18.6599 52.5734L19.3579 52.6221C19.5074 52.6221 19.7754 52.6367 20.1501 52.6367C20.7025 52.6367 21.0898 52.6221 21.3403 52.6123L21.7995 52.5734L21.784 52.9134L21.7995 53.271L21.3063 53.2427L20.3472 53.2174L19.9152 53.2086V54.8913L20.3928 54.8981C20.7025 54.8981 20.9976 54.8913 21.2743 54.8708L21.749 54.8367L21.7276 55.1855L21.749 55.5421L21.251 55.5051C21.0054 55.4876 20.7122 55.4778 20.3899 55.47L19.9152 55.4778V57.3417L20.3559 57.3544C20.6326 57.3544 20.9199 57.3417 21.2481 57.3212L21.7995 57.2813L21.784 57.634L21.7995 57.9828L21.2714 57.9536L20.3413 57.9234H19.3579L18.6599 57.9828L18.7046 57.5921C18.7153 57.3856 18.7221 57.1381 18.7221 56.8545Z" fill="#E5CE90"/>
<path d="M24.8251 56.7451V53.6516C24.8251 53.372 24.8251 53.1518 24.8066 52.9501L24.7639 52.5769L25.4377 52.5993L26.0842 52.5769L26.0483 52.9501C26.0318 53.1673 26.0201 53.408 26.0143 53.6691V57.3969L26.6958 57.3872C27.0453 57.3872 27.3152 57.3833 27.5103 57.3618L27.9297 57.3384L27.9103 57.6424L27.9297 57.9484L27.3433 57.8987C27.0997 57.887 26.6774 57.887 26.1085 57.887H25.3668L24.7639 57.9484L24.7989 57.5801C24.8115 57.3433 24.8251 57.0685 24.8251 56.7451Z" fill="#E5CE90"/>
<path d="M31.6335 52.5765L31.7791 52.9507C31.8656 53.168 31.9743 53.4086 32.115 53.6688C32.2063 53.9016 32.348 54.1813 32.5004 54.4677L32.8247 55.0591L33.1489 54.4619C33.3023 54.1423 33.4285 53.8802 33.5441 53.6317C33.6227 53.4535 33.7188 53.2177 33.8246 52.9507L33.9732 52.5765L34.4061 52.599L34.844 52.5765L34.5954 52.9663C34.5226 53.0569 34.4061 53.2868 34.2052 53.6522L33.4674 55.0133L33.1489 55.6934L33.0946 56.0949C33.0849 56.2225 33.0732 56.4086 33.0732 56.66C33.0732 57.0097 33.0849 57.2748 33.0946 57.4501L33.1489 57.8983L32.5004 57.8866L31.8296 57.8983L31.8656 57.4404L31.8898 56.7895V55.6934L31.5306 55.0669L30.7831 53.6931C30.655 53.4924 30.5074 53.2518 30.3288 52.9809L30.0676 52.5765L30.9113 52.599L31.6335 52.5765Z" fill="#E5CE90"/>
<path d="M41.7003 56.6766C41.8848 57.2105 42.2401 57.4765 42.7546 57.4697C43.0585 57.4697 43.2915 57.4122 43.44 57.2885C43.6322 57.1297 43.7409 56.925 43.7409 56.6883C43.7409 56.433 43.5769 56.2226 43.2614 56.0238C43.0924 55.9215 42.9012 55.8221 42.709 55.7354L42.1974 55.4704C41.7955 55.2541 41.5343 54.9803 41.413 54.651C41.3596 54.4834 41.3246 54.2963 41.3246 54.0888C41.3246 53.8238 41.3741 53.5958 41.4566 53.4038C41.5518 53.1826 41.7003 53.0063 41.91 52.8485C42.244 52.5922 42.6633 52.4694 43.1779 52.448C43.5769 52.448 43.9293 52.5289 44.2642 52.6906L44.4652 52.8007L44.3215 53.1602C44.2914 53.2518 44.2642 53.3921 44.2147 53.5802H44.0613C43.9526 53.3356 43.838 53.17 43.7118 53.1037C43.5458 52.9946 43.34 52.9439 43.1361 52.9439C42.8925 52.9439 42.7022 52.9946 42.5478 53.1193C42.3838 53.2518 42.2847 53.4165 42.2935 53.6328C42.2935 53.9085 42.4381 54.1112 42.7158 54.2866C42.8925 54.3928 43.1099 54.5048 43.3516 54.6266C43.8798 54.876 44.2293 55.0991 44.4089 55.3086C44.502 55.4334 44.5778 55.5756 44.6351 55.7451C44.6914 55.9088 44.7127 56.0589 44.7127 56.2304C44.7127 56.7477 44.502 57.1696 44.1011 57.5125C43.7341 57.8127 43.273 57.9647 42.6896 57.9647C42.5061 57.9647 42.2935 57.9354 42.0954 57.912C41.91 57.8662 41.7294 57.837 41.5799 57.7581L41.2673 57.6285C41.344 57.4132 41.4042 57.2631 41.4207 57.1637C41.4566 57.0459 41.4829 56.8909 41.5003 56.6766H41.7003Z" fill="#E5CE90"/>
<path d="M47.5749 56.8173L47.5875 55.842L47.5749 54.4283V53.602L47.5507 52.9366L47.5099 52.5371L48.2079 52.5848C48.372 52.5848 48.6312 52.5995 49.0039 52.5995C49.5563 52.5995 49.9505 52.5848 50.1893 52.5761L50.6592 52.5371L50.6456 52.8762L50.6592 53.2357L50.1738 53.2065L49.2059 53.1811L48.7739 53.1733V54.856L49.2544 54.8618C49.5563 54.8618 49.8447 54.856 50.133 54.8346L50.6019 54.7995L50.5834 55.1502L50.6019 55.5069L50.1136 55.4669C49.8553 55.4513 49.567 55.4416 49.2331 55.4338L48.7739 55.4416V57.3064L49.2156 57.3201C49.4796 57.3201 49.7806 57.3064 50.0951 57.284L50.6592 57.246L50.6456 57.5987L50.6592 57.9485L50.1223 57.9164L49.2049 57.8871H48.2079L47.5099 57.9485L47.5507 57.5559C47.5652 57.3503 47.5749 57.1018 47.5749 56.8173Z" fill="#E5CE90"/>
<path d="M53.5637 56.7451V53.6516C53.5637 53.372 53.5443 53.1518 53.5434 52.9501L53.4861 52.5769L54.1695 52.5993L54.8112 52.5769L54.7743 52.9501C54.7578 53.1673 54.7559 53.408 54.7442 53.6691V57.3969L55.4267 57.3872C55.7752 57.3872 56.0257 57.3833 56.2412 57.3618L56.6596 57.3384L56.6383 57.6424L56.6596 57.9484L56.0791 57.8987C55.8286 57.887 55.4102 57.887 54.8287 57.887H54.0948L53.4861 57.9484L53.5162 57.5801C53.5434 57.3433 53.5443 57.0685 53.5637 56.7451Z" fill="#E5CE90"/>
<path d="M59.4834 56.8173L59.4883 55.842L59.4834 54.4283V53.602L59.4562 52.9366L59.4252 52.5371L60.1125 52.5848C60.2727 52.5848 60.5377 52.5995 60.9047 52.5995C61.4542 52.5995 61.8551 52.5848 62.0949 52.5761L62.5599 52.5371L62.5405 52.8762L62.5599 53.2357L62.0706 53.2065L61.1115 53.1811L60.6707 53.1733V54.856L61.1522 54.8618C61.4542 54.8618 61.7532 54.856 62.0434 54.8346L62.5036 54.7995L62.4842 55.1502L62.5036 55.5069L62.0182 55.4669C61.759 55.4513 61.4765 55.4416 61.1396 55.4338L60.6707 55.4416V57.3064L61.1251 57.3201C61.393 57.3201 61.6871 57.3064 62.0046 57.284L62.5599 57.246L62.5405 57.5987L62.5599 57.9485L62.0308 57.9164L61.1115 57.8871H60.1125L59.4252 57.9485L59.4562 57.5559C59.4834 57.3503 59.4834 57.1018 59.4834 56.8173Z" fill="#E5CE90"/>
<path d="M69.3919 53.372C69.1065 53.1109 68.7424 52.9813 68.291 52.9813C67.7046 52.9813 67.2367 53.218 66.8736 53.6925C66.5873 54.0979 66.4368 54.6025 66.4368 55.2154C66.4368 55.6393 66.5183 56.0436 66.6581 56.4109C66.7979 56.7568 67.0163 57.0228 67.3202 57.2128C67.6357 57.4135 67.9745 57.5022 68.3483 57.5061C68.8191 57.5061 69.2181 57.3833 69.5899 57.1056L69.8268 56.9263L69.9404 56.977L69.8268 57.3433L69.7627 57.6551L69.5608 57.7477C69.1793 57.9007 68.6997 57.9932 68.1541 58C67.6425 58 67.1746 57.9007 66.7358 57.7477C66.4057 57.6201 66.1038 57.4408 65.8388 57.1991C65.6058 56.9624 65.4291 56.7237 65.3048 56.4557C65.1699 56.1284 65.1019 55.7532 65.1019 55.3265C65.1019 54.4135 65.4087 53.713 66.0184 53.218C66.6212 52.7338 67.3746 52.4834 68.3192 52.4834C68.7997 52.4834 69.2424 52.5653 69.6472 52.6968L69.9579 52.8069L69.8433 53.1917L69.7336 53.6711H69.6705C69.5647 53.5523 69.4705 53.4528 69.3919 53.372Z" fill="#E5CE90"/>
<path d="M72.3783 52.5375L73.021 52.5648C73.5957 52.5852 74.0743 52.5989 74.4616 52.5989C74.8762 52.5989 75.3499 52.5852 75.9042 52.5648L76.5343 52.5375L76.5139 52.8444L76.5343 53.1523L76.0178 53.1221L75.3781 53.0958H75.049V54.872L75.0616 56.3695L75.0829 57.3867L75.1247 57.8982L74.4616 57.8866L73.7986 57.8982L73.8199 57.3867L73.852 56.3695L73.8675 54.872L73.8733 53.4163V53.0958H73.5452L72.8938 53.1221L72.3783 53.1523L72.3996 52.8444L72.3783 52.5375Z" fill="#E5CE90"/>
<path d="M79.2373 56.8173V55.842V54.4283V53.602L79.2043 52.9366L79.1723 52.5371L79.8587 52.5848C80.0188 52.5848 80.2916 52.5995 80.6528 52.5995C81.2032 52.5995 81.5925 52.5848 81.8371 52.5761L82.3089 52.5371L82.2876 52.8762L82.3089 53.2357L81.8138 53.2065L80.8576 53.1811L80.4256 53.1733V54.856L80.9023 54.8618C81.2032 54.8618 81.5042 54.856 81.7896 54.8346L82.2565 54.7995L82.2293 55.1502L82.2565 55.5069L81.7595 55.4669C81.5042 55.4513 81.2236 55.4416 80.8867 55.4338L80.4256 55.4416V57.3064L80.8683 57.3201C81.1382 57.3201 81.4216 57.3064 81.7449 57.284L82.3089 57.246L82.2876 57.5987L82.3089 57.9485L81.7808 57.9164L80.846 57.8871H79.8587L79.1723 57.9485L79.2043 57.5559C79.2189 57.3503 79.2373 57.1018 79.2373 56.8173Z" fill="#E5CE90"/>
<path d="M86.9863 57.3835L87.4183 57.3972C88.0697 57.3972 88.5716 57.1711 88.9026 56.723C89.1939 56.3284 89.3424 55.8071 89.3424 55.1504C89.3424 54.6671 89.2521 54.256 89.0647 53.9169C88.8356 53.4872 88.4959 53.2358 88.0464 53.152C87.8406 53.1101 87.561 53.1014 87.2076 53.0877L86.6921 53.1101L86.6805 53.6928L86.6601 55.2498L86.6746 56.6996L86.6921 57.3611L86.9863 57.3835ZM85.466 56.7317L85.4786 55.2118L85.466 53.6704C85.466 53.3391 85.4534 53.1063 85.4417 52.9591L85.4116 52.5372L85.7291 52.585C85.8398 52.585 85.9757 52.5996 86.1708 52.5996C86.4834 52.5996 86.7999 52.585 87.1115 52.5762L87.9279 52.5372C88.4007 52.5372 88.7939 52.585 89.1075 52.6863C89.6065 52.8364 89.9967 53.1676 90.3093 53.6704C90.5481 54.1049 90.6714 54.6018 90.685 55.1406C90.6714 55.9757 90.386 56.6606 89.8239 57.1984C89.2958 57.7041 88.5716 57.9487 87.6435 57.9487C87.4183 57.9487 87.1435 57.937 86.8406 57.9165L86.1485 57.8863C85.9446 57.8863 85.8126 57.8863 85.7116 57.898L85.4116 57.9487L85.4417 57.5472C85.4534 57.3835 85.4534 57.1058 85.466 56.7317Z" fill="#E5CE90"/>
<path d="M98.0338 56.6766C98.2124 57.2105 98.5774 57.4765 99.091 57.4697C99.3784 57.4697 99.6143 57.4122 99.7638 57.2865C99.9657 57.1277 100.078 56.927 100.078 56.6883C100.078 56.432 99.9084 56.2226 99.5948 56.0238C99.4201 55.9215 99.2386 55.8221 99.0395 55.7354L98.5308 55.4704C98.1309 55.2541 97.8649 54.9783 97.7416 54.651C97.6921 54.4834 97.6581 54.2963 97.6581 54.0888C97.6581 53.8238 97.6969 53.5958 97.7862 53.4038C97.8833 53.1826 98.0338 53.0063 98.2396 52.8475C98.5774 52.5912 99.0036 52.4694 99.5084 52.448C99.9006 52.448 100.255 52.5289 100.589 52.6906L100.797 52.8007L100.649 53.1602C100.626 53.2518 100.589 53.3921 100.54 53.5802H100.38C100.285 53.3356 100.168 53.171 100.042 53.1018C99.8696 52.9946 99.6677 52.9439 99.4618 52.9439C99.2191 52.9439 99.0347 52.9946 98.8832 53.1184C98.7085 53.2518 98.6095 53.4165 98.6211 53.6328C98.6211 53.9095 98.7648 54.1112 99.0395 54.2866C99.2191 54.3928 99.4424 54.5019 99.6793 54.6266C100.218 54.876 100.562 55.0991 100.738 55.3067C100.827 55.4314 100.905 55.5756 100.965 55.7442C101.024 55.9079 101.038 56.0589 101.038 56.2304C101.038 56.7458 100.827 57.1696 100.437 57.5125C100.068 57.8127 99.5997 57.9647 99.0085 57.9647C98.8269 57.9647 98.6211 57.9354 98.4105 57.912C98.2396 57.8662 98.0493 57.837 97.9008 57.7581L97.6076 57.6285C97.6794 57.4132 97.7299 57.2631 97.7552 57.1618C97.7862 57.0459 97.8066 56.8909 97.8289 56.6766H98.0338Z" fill="#E5CE90"/>
<path d="M105.547 55.0705C106.249 55.0627 106.603 54.6827 106.603 53.9383C106.597 53.3449 106.308 53.0663 105.731 53.0595L105.456 53.0702L105.417 53.495L105.403 54.0806L105.395 54.7265L105.403 55.0568L105.547 55.0705ZM105.49 52.5489L106.185 52.5392C106.814 52.5489 107.268 52.6863 107.535 52.9377C107.655 53.0439 107.741 53.1598 107.804 53.3011C107.892 53.5067 107.918 53.7142 107.918 53.9471C107.918 55.0227 107.206 55.5654 105.776 55.5654L105.403 55.5547V55.9318L105.41 56.834L105.445 57.5102L105.459 57.861L104.836 57.8512L104.144 57.861L104.162 57.5355L104.178 56.912L104.209 55.9211V54.6944L104.202 53.7532C104.202 53.3732 104.178 53.0751 104.174 52.8422L104.148 52.5392L104.792 52.5645L105.49 52.5489Z" fill="#E5CE90"/>
<path d="M110.775 56.7812L110.784 55.8059L110.775 54.3931V53.5659L110.752 52.9014L110.726 52.501L111.409 52.5487C111.573 52.5487 111.83 52.5643 112.207 52.5643C112.751 52.5643 113.146 52.5487 113.385 52.5399L113.855 52.501L113.83 52.842L113.855 53.1995L113.363 53.1713L112.407 53.146L111.969 53.1372V54.8199L112.453 54.8257C112.751 54.8257 113.037 54.8199 113.336 54.7994L113.795 54.7643L113.776 55.1151L113.795 55.4697L113.308 55.4308C113.045 55.4152 112.754 55.4074 112.444 55.3976L111.969 55.4074V57.2713L112.415 57.283C112.68 57.283 112.976 57.2713 113.296 57.2489L113.855 57.2099L113.83 57.5636L113.855 57.9114L113.328 57.8802L112.395 57.852H111.409L110.726 57.9114L110.752 57.5197C110.775 57.3132 110.775 57.0667 110.775 56.7812Z" fill="#E5CE90"/>
<path d="M120.75 53.3358C120.457 53.0757 120.102 52.9442 119.649 52.9442C119.061 52.9442 118.588 53.1829 118.232 53.6574C117.937 54.0617 117.805 54.5674 117.805 55.1802C117.805 55.6031 117.864 56.0065 118.019 56.3748C118.156 56.7207 118.381 56.9876 118.686 57.1776C118.994 57.3774 119.33 57.466 119.706 57.4699C120.167 57.4699 120.572 57.3481 120.955 57.0695L121.19 56.8902L121.299 56.9418L121.19 57.3072L121.112 57.619L120.92 57.7116C120.528 57.8665 120.058 57.9581 119.513 57.9649C119.009 57.9649 118.534 57.8665 118.089 57.7116C117.761 57.5839 117.453 57.4046 117.195 57.162C116.948 56.9272 116.778 56.6875 116.658 56.4196C116.518 56.0932 116.467 55.7171 116.467 55.2913C116.467 54.3764 116.763 53.6778 117.377 53.1829C117.969 52.6967 118.732 52.4482 119.67 52.4482C120.158 52.4482 120.594 52.5291 121.005 52.6606L121.313 52.7717L121.204 53.1566L121.092 53.635H121.032C120.92 53.5161 120.818 53.4167 120.75 53.3358Z" fill="#E5CE90"/>
<path d="M124.054 56.688L124.081 55.1759L124.07 53.8303C124.07 53.4298 124.07 53.1171 124.037 52.8677L124.017 52.5393L124.673 52.5646L125.331 52.5393L125.303 52.8677C125.283 53.044 125.276 53.3733 125.276 53.8488L125.267 55.1914V56.7202C125.27 57.0349 125.276 57.3018 125.299 57.5337L125.331 57.8611L124.687 57.8513L124.017 57.8611L124.037 57.4772L124.054 56.688Z" fill="#E5CE90"/>
<path d="M129.907 55.7774C130.062 55.7881 130.226 55.8008 130.395 55.8008C130.551 55.8008 130.68 55.8008 130.81 55.7881L131.072 55.754L130.944 55.45L130.539 54.502L130.36 54.0607L130.163 54.502L129.763 55.45L129.633 55.754L129.907 55.7774ZM129.763 54.0694L130.176 53.0854L130.36 52.5582L130.643 52.5816L131.006 52.5582L131.207 53.0854L131.582 54.0509C132.076 55.2717 132.547 56.3542 133.018 57.3052L133.323 57.88L132.538 57.8693L131.86 57.88L131.689 57.3646L131.44 56.6942L131.323 56.3542L130.885 56.3172C130.747 56.3114 130.557 56.2948 130.335 56.2948C130.106 56.2948 129.938 56.2948 129.8 56.3172L129.382 56.3542L129.245 56.6884C129.173 56.892 129.097 57.1171 129.02 57.3422L128.851 57.88L128.442 57.8693L127.995 57.88L128.291 57.3266C128.754 56.3698 129.245 55.298 129.763 54.0694Z" fill="#E5CE90"/>
<path d="M135.98 56.686V53.5906C135.98 53.3129 135.974 53.0917 135.958 52.891L135.918 52.5168L136.593 52.5383L137.232 52.5168L137.206 52.891C137.191 53.1073 137.178 53.3489 137.171 53.61V57.3359L137.85 57.3271C138.2 57.3271 138.47 57.3242 138.669 57.3008L139.086 57.2774L139.075 57.5814L139.086 57.8864L138.511 57.8376C138.25 57.8279 137.838 57.8279 137.248 57.8279H136.52L135.918 57.8864L135.958 57.519C135.974 57.2823 135.974 57.0095 135.98 56.686Z" fill="#E5CE90"/>
<path d="M141.894 56.7118L141.903 55.2006L141.894 53.856C141.894 53.4536 141.894 53.1389 141.871 52.8915L141.843 52.5651L142.508 52.5865L143.173 52.5651L143.134 52.8915C143.112 53.0688 143.111 53.3971 143.111 53.8736L143.089 55.2152V56.744C143.102 57.0596 143.111 57.3276 143.127 57.5565L143.173 57.8859L142.508 57.8751L141.843 57.8859L141.871 57.502L141.894 56.7118Z" fill="#E5CE90"/>
<path d="M145.891 52.5747L146.53 52.601C147.099 52.6225 147.587 52.6371 147.976 52.6371C148.379 52.6371 148.851 52.6225 149.411 52.601L150.048 52.5747L150.035 52.8807L150.048 53.1895L149.535 53.1574L148.89 53.134H148.562V54.9092L148.579 56.4067L148.589 57.423L148.622 57.9345L147.976 57.9238L147.313 57.9345L147.335 57.423L147.37 56.4067V54.9092V53.4516V53.134H147.057L146.398 53.1574L145.891 53.1895L145.91 52.8807L145.891 52.5747Z" fill="#E5CE90"/>
<path d="M153.86 52.6366L154.002 53.0117C154.086 53.228 154.196 53.4677 154.33 53.7308C154.431 53.9617 154.57 54.2384 154.739 54.5278L155.054 55.1182L155.362 54.5219C155.527 54.2024 155.662 53.9422 155.77 53.6918C155.853 53.5135 155.955 53.2797 156.052 53.0117L156.204 52.6366L156.639 52.659L157.073 52.6366L156.816 53.0273C156.744 53.117 156.626 53.3488 156.43 53.7113L155.701 55.0763L155.362 55.7535L155.316 56.1568C155.306 56.2816 155.306 56.4696 155.306 56.72C155.306 57.0698 155.306 57.3338 155.328 57.5102L155.362 57.9594L154.724 57.9487L154.061 57.9594L154.086 57.5014L154.115 56.8486V55.7535L153.754 55.128L153.005 53.7542C152.88 53.5525 152.737 53.3128 152.554 53.0429L152.293 52.6366L153.135 52.659L153.86 52.6366Z" fill="#E5CE90"/>
<path d="M162.54 52.5013L163.187 52.5286C163.759 52.5491 164.234 52.5637 164.622 52.5637C165.037 52.5637 165.509 52.5491 166.072 52.5286L166.704 52.5013L166.676 52.8083L166.704 53.1171L166.185 53.0859L165.535 53.0597H165.208V54.8359L165.233 56.3334L165.249 57.3506L165.278 57.8611L164.618 57.8514L163.956 57.8611L163.99 57.3506L164.012 56.3334L164.018 54.8359L164.037 53.3802V53.0597H163.704L163.064 53.0859L162.54 53.1171L162.567 52.8083L162.54 52.5013Z" fill="#E5CE90"/>
<path d="M169.31 56.7812L169.322 55.8059L169.31 54.3931V53.5659L169.284 52.9014L169.25 52.501L169.933 52.5487C170.09 52.5487 170.369 52.5643 170.731 52.5643C171.284 52.5643 171.672 52.5487 171.927 52.5399L172.387 52.501L172.374 52.842L172.387 53.1995L171.902 53.1713L170.941 53.146L170.508 53.1372V54.8199L170.978 54.8257C171.284 54.8257 171.585 54.8199 171.875 54.7994L172.329 54.7643L172.302 55.1151L172.329 55.4697L171.846 55.4308C171.585 55.4152 171.3 55.4074 170.967 55.3976L170.508 55.4074V57.2713L170.958 57.283C171.224 57.283 171.512 57.2713 171.834 57.2489L172.387 57.2099L172.374 57.5636L172.387 57.9114L171.865 57.8802L170.925 57.852H169.933L169.25 57.9114L169.284 57.5197C169.296 57.3132 169.31 57.0667 169.31 56.7812Z" fill="#E5CE90"/>
<path d="M176.591 55.7355C176.744 55.7443 176.894 55.7579 177.079 55.7579C177.23 55.7579 177.359 55.7579 177.482 55.7443L177.749 55.7121L177.623 55.4072L177.225 54.4592L177.034 54.0188L176.838 54.4592L176.447 55.4072L176.295 55.7121L176.591 55.7355ZM176.447 54.0275L176.845 53.0425L177.037 52.5164L177.331 52.5388L177.679 52.5164L177.891 53.0425L178.264 54.0071C178.748 55.2289 179.232 56.3123 179.703 57.2623L180 57.8372L179.216 57.8274L178.53 57.8372L178.364 57.3247L178.115 56.6524L178.004 56.3123L177.563 56.2744C177.437 56.2675 177.246 56.251 177.019 56.251C176.791 56.251 176.607 56.251 176.477 56.2744L176.06 56.3123L175.933 56.6436C175.848 56.8511 175.778 57.0752 175.697 57.3003L175.533 57.8372L175.122 57.8274L174.669 57.8372L174.972 57.2828C175.44 56.3289 175.92 55.2552 176.447 54.0275Z" fill="#E5CE90"/>
</svg>
